<svg xmlns="http://www.w3.org/2000/svg" viewBox="0 0 623.79 576.01"><defs><style>.a{fill:#11a4c1;}.b{fill:#fff;}</style></defs><title>Teal DCC Logo</title><circle class="a" cx="335.35" cy="290.8" r="283.91"/><path class="b" d="M563.22,58.78,144.68,230.4a6.63,6.63,0,0,0,2.27,12l113.24,2.77c32.62-.3,48.65-2.79,57.49,2.58a14.89,14.89,0,0,0,17.19-1.39L547,74.61c3.57-3.26,8.44-4.53,5.54-.66L330,266.85a6.54,6.54,0,0,0-2.29,4.69c-.21,4.58-.36,10.83-.45,11.24l.44,64.52a2.28,2.28,0,0,0,4.05,1.85l37.65-40.88c31.14-32.51,44.83-31.78,73.05-4.18L478,340.58c35.34,37.14,35.27,24.73,42.46-22.62L569.39,62.64A4,4,0,0,0,563.22,58.78Z"/><path class="b" d="M3.77,470.29c48.15.13,74.43,49.05,105.59,58.66,67.69,20.88,173.28,11.73,213.91-139.76-39,116.57-191.5,113.59-227.26,54.39C22.23,321.45,43.78,456,3.77,470.29Z"/></svg>