<?xml version="1.0" encoding="utf-8"?>
<!-- Generator: Adobe Illustrator 22.1.0, SVG Export Plug-In . SVG Version: 6.00 Build 0)  -->
<svg version="1.1" id="Layer_1" xmlns="http://www.w3.org/2000/svg" xmlns:xlink="http://www.w3.org/1999/xlink" x="0px" y="0px"
	 viewBox="0 0 623.8 576" style="enable-background:new 0 0 623.8 576;" xml:space="preserve">
<style type="text/css">
	.st0{fill:#11A4C1;}
	.st1{fill:#FFFFFF;}
</style>
<rect x="0.3" y="0.2" class="st0" width="623" height="578"/>
<g id="Teal_Text_1_">
	<circle class="st0" cx="335.3" cy="290.8" r="283.9"/>
	<path class="st1" d="M563.2,58.8L144.7,230.4c-4.9,3.2-3.5,10.8,2.3,12l113.2,2.8c32.6-0.3,48.7-2.8,57.5,2.6
		c5.4,3.3,12.3,2.6,17.2-1.4L547,74.6c3.6-3.3,8.4-4.5,5.5-0.7L330,266.8c-1.4,1.2-2.2,2.9-2.3,4.7c-0.2,4.6-0.4,10.8-0.5,11.2
		l0.4,64.5c-0.5,2.4,2.6,3.8,4.1,1.9l37.6-40.9c31.1-32.5,44.8-31.8,73-4.2l35.5,36.5c35.3,37.1,35.3,24.7,42.5-22.6l48.9-255.3
		C569.9,59.2,566.1,56.9,563.2,58.8z"/>
	<path class="st1" d="M3.8,470.3c48.2,0.1,74.4,49.1,105.6,58.7c67.7,20.9,173.3,11.7,213.9-139.8c-39,116.6-191.5,113.6-227.3,54.4
		C22.2,321.4,43.8,455.9,3.8,470.3z"/>
</g>
</svg>
